<svg xmlns="http://www.w3.org/2000/svg" xmlns:xlink="http://www.w3.org/1999/xlink" version="1.1" x="0px" y="0px" viewBox="0 0 66 82.5" style="enable-background:new 0 0 66 66;" xml:space="preserve"><path d="M12.63,40.96h30.33c0.53,0,0.95-0.43,0.95-0.95V16.68c0-0.53-0.43-0.95-0.95-0.95H12.63c-0.53,0-0.95,0.43-0.95,0.95v23.33  C11.67,40.54,12.1,40.96,12.63,40.96z M13.58,39.05v-7.64h7.31c0.4,0,0.77-0.26,0.9-0.64l2.3-6.53l4.73,11.9  c0.14,0.36,0.5,0.6,0.89,0.6c0,0,0.01,0,0.01,0c0.4,0,0.75-0.25,0.88-0.62l3.42-9.24l1.74,3.96c0.15,0.35,0.49,0.57,0.87,0.57H42  v7.64H13.58z M42,17.64v11.87h-4.74l-2.44-5.55c-0.16-0.36-0.52-0.6-0.9-0.57c-0.39,0.01-0.73,0.26-0.87,0.62l-3.38,9.12  l-4.76-11.96c-0.15-0.37-0.5-0.61-0.91-0.6c-0.4,0.01-0.75,0.26-0.88,0.64l-2.92,8.29h-6.64V17.64H42z"/><path d="M58.97,3.46H7.03c-2.53,0-4.58,2.05-4.58,4.58v0.24c0,2.48,1.98,4.49,4.44,4.57v41.93c0,2.11,1.71,3.82,3.82,3.82h1.92v2.99  c0,0.53,0.43,0.95,0.95,0.95h7.31c0.53,0,0.95-0.43,0.95-0.95v-2.99h22.31v2.99c0,0.53,0.43,0.95,0.95,0.95h7.31  c0.53,0,0.95-0.43,0.95-0.95v-2.99h1.92c2.11,0,3.82-1.71,3.82-3.82V12.85c2.46-0.08,4.44-2.09,4.44-4.57V8.04  C63.55,5.51,61.49,3.46,58.97,3.46z M57.2,43.56H8.8V12.86H57.2V43.56z M19.94,60.63h-5.4v-2.04h5.4V60.63z M51.46,60.63h-5.4v-2.04  h5.4V60.63z M55.29,56.68H10.71c-1.05,0-1.91-0.86-1.91-1.91v-9.31H57.2v9.31C57.2,55.83,56.34,56.68,55.29,56.68z M61.64,8.28  c0,1.47-1.2,2.67-2.67,2.67h-0.81H7.85H7.03c-1.47,0-2.67-1.2-2.67-2.67V8.04c0-1.47,1.2-2.67,2.67-2.67h51.93  c1.47,0,2.67,1.2,2.67,2.67V8.28z"/><path d="M20.04,47.98h-7.8c-0.53,0-0.95,0.43-0.95,0.95v4.27c0,0.53,0.43,0.95,0.95,0.95h7.8c0.53,0,0.95-0.43,0.95-0.95v-4.27  C20.99,48.41,20.57,47.98,20.04,47.98z M19.08,52.25h-5.89v-2.36h5.89V52.25z"/><path d="M53.35,47.98h-7.8c-0.53,0-0.95,0.43-0.95,0.95v4.27c0,0.53,0.43,0.95,0.95,0.95h7.8c0.53,0,0.95-0.43,0.95-0.95v-4.27  C54.31,48.41,53.88,47.98,53.35,47.98z M52.4,52.25h-5.89v-2.36h5.89V52.25z"/><path d="M32.8,46.91c-2.3,0-4.17,1.87-4.17,4.17c0,2.3,1.87,4.17,4.17,4.17c2.3,0,4.17-1.87,4.17-4.17  C36.96,48.78,35.09,46.91,32.8,46.91z M32.8,53.33c-1.24,0-2.26-1.01-2.26-2.26c0-1.24,1.01-2.26,2.26-2.26  c1.24,0,2.26,1.01,2.26,2.26C35.05,52.32,34.04,53.33,32.8,53.33z"/><path d="M50.65,23.35c2.28,0,4.13-1.85,4.13-4.13s-1.85-4.13-4.13-4.13s-4.13,1.85-4.13,4.13S48.38,23.35,50.65,23.35z M50.65,17.01  c1.22,0,2.22,1,2.22,2.22c0,1.22-1,2.22-2.22,2.22c-1.22,0-2.22-1-2.22-2.22C48.43,18,49.43,17.01,50.65,17.01z"/><path d="M50.65,40.96c2.28,0,4.13-1.85,4.13-4.13s-1.85-4.13-4.13-4.13s-4.13,1.85-4.13,4.13S48.38,40.96,50.65,40.96z M50.65,34.62  c1.22,0,2.22,1,2.22,2.22c0,1.22-1,2.22-2.22,2.22c-1.22,0-2.22-1-2.22-2.22C48.43,35.61,49.43,34.62,50.65,34.62z"/><path d="M47.48,28.99h6.35c0.53,0,0.95-0.43,0.95-0.95c0-0.53-0.43-0.95-0.95-0.95h-6.35c-0.53,0-0.95,0.43-0.95,0.95  C46.53,28.56,46.95,28.99,47.48,28.99z"/></svg>