<svg xmlns="http://www.w3.org/2000/svg" data-name="Layer 1" viewBox="0 0 64 80" x="0px" y="0px"><path d="M5.293,15.207l-3,3a1,1,0,0,0,0,1.414l12,12a1,1,0,0,0,1.414,0l3-3a1,1,0,0,0,0-1.414l-12-12A1,1,0,0,0,5.293,15.207ZM6,17.328l4.629,4.629L9.043,23.543,4.414,18.914ZM15,29.5l-4.543-4.543,1.586-1.586,4.543,4.543Z"/><path d="M21,61a1,1,0,0,0,1,1h4a1,1,0,0,0,1-1V26.086a1,1,0,0,0-.293-.707L11.621,10.293a1,1,0,0,0-1.414,0L7.379,13.121a1,1,0,0,0,0,1.414L21,28.157Zm4-16H23V34h2ZM23,60V47h2V60ZM10.914,12.414l4.629,4.629-1.414,1.414L9.5,13.828Zm4.629,7.457,1.414-1.414L25,26.5V32H23V27.743a1,1,0,0,0-.293-.707Z"/><path d="M55.707,2.293a1,1,0,0,0-1.414,0l-7,7A1,1,0,0,0,47,10v1.5l-1.207-1.207a1,1,0,0,0-1.414,0L29.293,25.379a1,1,0,0,0-.293.707V61a1,1,0,0,0,1,1h4a1,1,0,0,0,1-1V28.157L47.026,16.13a.99.99,0,0,0,.565.779l-10.3,10.3a1,1,0,0,0,0,1.414l3,3a1,1,0,0,0,1.414,0l12-12a1,1,0,0,0,0-1.414L52.5,17H54a1,1,0,0,0,.707-.293l7-7a1,1,0,0,0,0-1.414ZM33,45H31V34h2ZM31,60V47h2V60Zm2.293-32.964a1,1,0,0,0-.293.707V32H31V26.5l8.043-8.043,1.414,1.414Zm8.578-8.579-1.414-1.414,4.629-4.629L46.5,13.828ZM41,29.5l-1.586-1.586,4.543-4.543,1.586,1.586Zm5.957-5.957-1.586-1.586L50,17.328l1.586,1.586ZM53.586,15H49V10.414l6-6L59.586,9Z"/></svg>