<svg xmlns="http://www.w3.org/2000/svg" version="1.1" viewBox="-5.0 -10.0 110.0 135.0">
 <path d="m14.582 16.668c-4.6016 0-8.332 3.7344-8.332 8.332v8.332c0 1.1484 0.93359 2.082 2.082 2.082 1.1484 0 2.082-0.93359 2.082-2.082v-8.332c0-2.3008 1.8672-4.168 4.168-4.168h6.25c1.1484 0 2.082-0.93359 2.082-2.082s-0.93359-2.082-2.082-2.082zm64.582 0c-1.1484 0-2.082 0.93359-2.082 2.082s0.93359 2.082 2.082 2.082h6.25c2.3008 0 4.168 1.8672 4.168 4.168v8.332c0 1.1484 0.93359 2.082 2.082 2.082 1.1484 0 2.082-0.93359 2.082-2.082v-8.332c0-4.5977-3.7344-8.332-8.332-8.332zm-62.5 8.332c-1.1484 0-2.082 0.93359-2.082 2.082v45.832c0 1.1484 0.93359 2.082 2.082 2.082 1.1484 0 2.082-0.93359 2.082-2.082v-45.832c0-1.1484-0.93359-2.082-2.082-2.082zm8.332 0c-1.1484 0-2.082 0.93359-2.082 2.082v35.418c0 1.1484 0.93359 2.082 2.082 2.082 1.1484 0 2.082-0.93359 2.082-2.082v-35.418c0-1.1484-0.93359-2.082-2.082-2.082zm8.332 0c-1.1484 0-2.082 0.93359-2.082 2.082v35.418c0 1.1484 0.93359 2.082 2.082 2.082s2.082-0.93359 2.082-2.082v-35.418c0-1.1484-0.93359-2.082-2.082-2.082zm8.332 0c-1.1484 0-2.082 0.93359-2.082 2.082v4.168c0 1.1484 0.93359 2.082 2.082 2.082 1.1484 0 2.082-0.93359 2.082-2.082v-4.168c0-1.1484-0.93359-2.082-2.082-2.082zm8.332 0c-1.1484 0-2.082 0.93359-2.082 2.082v45.832c0 1.1484 0.93359 2.082 2.082 2.082 1.1484 0 2.082-0.93359 2.082-2.082v-45.832c0-1.1484-0.93359-2.082-2.082-2.082zm8.332 0c-1.1484 0-2.082 0.93359-2.082 2.082v4.168c0 1.1484 0.93359 2.082 2.082 2.082 1.1484 0 2.082-0.93359 2.082-2.082v-4.168c0-1.1484-0.93359-2.082-2.082-2.082zm8.332 0c-1.1484 0-2.082 0.93359-2.082 2.082v45.832c0 1.1484 0.93359 2.082 2.082 2.082s2.082-0.93359 2.082-2.082v-45.832c0-1.1484-0.93359-2.082-2.082-2.082zm8.332 0c-1.1484 0-2.082 0.93359-2.082 2.082v35.418c0 1.1484 0.93359 2.082 2.082 2.082 1.1484 0 2.082-0.93359 2.082-2.082v-35.418c0-1.1484-0.93359-2.082-2.082-2.082zm8.332 0c-1.1484 0-2.082 0.93359-2.082 2.082v45.832c0 1.1484 0.93359 2.082 2.082 2.082 1.1484 0 2.082-0.93359 2.082-2.082v-45.832c0-1.1484-0.93359-2.082-2.082-2.082zm-41.668 10.418c-1.1484 0-2.082 0.93359-2.082 2.082v35.418c0 1.1484 0.93359 2.082 2.082 2.082 1.1484 0 2.082-0.93359 2.082-2.082v-35.418c0-1.1484-0.93359-2.082-2.082-2.082zm16.668 0c-1.1484 0-2.082 0.93359-2.082 2.082v35.418c0 1.1484 0.93359 2.082 2.082 2.082 1.1484 0 2.082-0.93359 2.082-2.082v-35.418c0-1.1484-0.93359-2.082-2.082-2.082zm-50 29.168c-1.1484 0-2.082 0.93359-2.082 2.082v8.332c0 4.5977 3.7344 8.332 8.332 8.332h6.25c1.1484 0 2.082-0.93359 2.082-2.082s-0.93359-2.082-2.082-2.082h-6.25c-2.3008 0-4.168-1.8672-4.168-4.168v-8.332c0-1.1484-0.93359-2.082-2.082-2.082zm83.332 0c-1.1484 0-2.082 0.93359-2.082 2.082v8.332c0 2.3008-1.8672 4.168-4.168 4.168h-6.25c-1.1484 0-2.082 0.93359-2.082 2.082s0.93359 2.082 2.082 2.082h6.25c4.6016 0 8.332-3.7344 8.332-8.332v-8.332c0-1.1484-0.93359-2.082-2.082-2.082zm-66.668 2.082c-1.1484 0-2.082 0.93359-2.082 2.082v4.168c0 1.1484 0.93359 2.082 2.082 2.082s2.082-0.93359 2.082-2.082v-4.168c0-1.1484-0.93359-2.082-2.082-2.082zm8.332 0c-1.1484 0-2.082 0.93359-2.082 2.082v4.168c0 1.1484 0.93359 2.082 2.082 2.082 1.1484 0 2.082-0.93359 2.082-2.082v-4.168c0-1.1484-0.93359-2.082-2.082-2.082zm41.668 0c-1.1484 0-2.082 0.93359-2.082 2.082v4.168c0 1.1484 0.93359 2.082 2.082 2.082s2.082-0.93359 2.082-2.082v-4.168c0-1.1484-0.93359-2.082-2.082-2.082z" fill-rule="evenodd"/>
</svg>