<svg xmlns="http://www.w3.org/2000/svg" version="1.1" viewBox="-5.0 -10.0 110.0 135.0">
 <path d="m27.609 89.996h44.781c4.0977 0 7.4336-3.3359 7.4336-7.4336v-65.129c0-4.0977-3.3359-7.4336-7.4336-7.4336h-44.781c-4.0977 0-7.4336 3.3359-7.4336 7.4336v65.133c0 4.0977 3.3359 7.4336 7.4336 7.4336zm-4.9336-72.562c0-2.7188 2.2148-4.9336 4.9336-4.9336h44.781c2.7188 0 4.9336 2.2148 4.9336 4.9336v65.133c0 2.7188-2.2148 4.9336-4.9336 4.9336l-44.781-0.003906c-2.7188 0-4.9336-2.2148-4.9336-4.9336zm5.6953 18.102h43.254c0.69141 0 1.25-0.55859 1.25-1.25v-16.164c0-0.69141-0.55859-1.25-1.25-1.25h-43.254c-0.69141 0-1.25 0.55859-1.25 1.25v16.164c0 0.69141 0.55859 1.25 1.25 1.25zm1.25-16.164h40.754v13.664h-40.754zm-1.25 32.043h11.535c0.69141 0 1.25-0.55859 1.25-1.25v-11.531c0-0.69141-0.55859-1.25-1.25-1.25h-11.535c-0.69141 0-1.25 0.55859-1.25 1.25v11.531c0 0.69141 0.55859 1.25 1.25 1.25zm1.25-11.531h9.0352v9.0312h-9.0352zm-1.25 43.254h11.535c0.69141 0 1.25-0.55859 1.25-1.25v-11.535c0-0.69141-0.55859-1.25-1.25-1.25h-11.535c-0.69141 0-1.25 0.55859-1.25 1.25v11.535c0 0.69141 0.55859 1.25 1.25 1.25zm1.25-11.535h9.0352v9.0352h-9.0352zm-1.25-4.3242h11.535c0.69141 0 1.25-0.55859 1.25-1.25v-11.535c0-0.69141-0.55859-1.25-1.25-1.25h-11.535c-0.69141 0-1.25 0.55859-1.25 1.25v11.535c0 0.69141 0.55859 1.25 1.25 1.25zm1.25-11.535h9.0352v9.0352h-9.0352zm26.148-18.355h-11.535c-0.69141 0-1.25 0.55859-1.25 1.25v11.531c0 0.69141 0.55859 1.25 1.25 1.25h11.535c0.69141 0 1.25-0.55859 1.25-1.25v-11.531c0-0.69141-0.55859-1.25-1.25-1.25zm-1.25 11.531h-9.0352v-9.0312h9.0352zm1.25 20.184h-11.535c-0.69141 0-1.25 0.55859-1.25 1.25v11.535c0 0.69141 0.55859 1.25 1.25 1.25h11.535c0.69141 0 1.25-0.55859 1.25-1.25v-11.535c0-0.69141-0.55859-1.25-1.25-1.25zm-1.25 11.535h-9.0352v-9.0352h9.0352zm1.25-27.398h-11.535c-0.69141 0-1.25 0.55859-1.25 1.25v11.535c0 0.69141 0.55859 1.25 1.25 1.25h11.535c0.69141 0 1.25-0.55859 1.25-1.25v-11.535c0-0.69141-0.55859-1.25-1.25-1.25zm-1.25 11.535h-9.0352v-9.0352h9.0352zm17.105-27.395h-11.531c-0.69141 0-1.25 0.55859-1.25 1.25v11.531c0 0.69141 0.55859 1.25 1.25 1.25h11.531c0.69141 0 1.25-0.55859 1.25-1.25v-11.531c0-0.69141-0.55859-1.25-1.25-1.25zm-1.25 11.531h-9.0312v-9.0312h9.0312zm1.25 4.3242h-11.531c-0.69141 0-1.25 0.55859-1.25 1.25v27.398c0 0.69141 0.55859 1.25 1.25 1.25h11.531c0.69141 0 1.25-0.55859 1.25-1.25v-27.398c0-0.69141-0.55859-1.25-1.25-1.25zm-1.25 27.398h-9.0312v-24.898h9.0312zm-4.6445-57.293-5.2695 7.1992c-0.24609 0.33594-0.625 0.51172-1.0117 0.51172-0.25781 0-0.51562-0.078125-0.73828-0.24219-0.55859-0.40625-0.67969-1.1914-0.26953-1.7461l5.2695-7.1992c0.40625-0.55859 1.1914-0.67969 1.7461-0.26953 0.55859 0.40625 0.67969 1.1914 0.26953 1.7461zm-6.6523 1.2344c-0.6875 0-1.25-0.5625-1.25-1.25v-0.71875c0-0.69141 0.5625-1.2539 1.25-1.2539s1.25 0.5625 1.25 1.2539v0.71875c0 0.6875-0.5625 1.25-1.25 1.25zm7.2695 4.5078v0.71875c0 0.69141-0.5625 1.2539-1.2539 1.2539-0.6875 0-1.25-0.5625-1.25-1.2539v-0.71875c0-0.6875 0.5625-1.25 1.25-1.25 0.69141 0 1.2539 0.5625 1.2539 1.25zm-11.328 0.72266c0 0.69141-0.55859 1.25-1.25 1.25h-1.6094c-0.69141 0-1.25-0.55859-1.25-1.25 0-0.69141 0.55859-1.25 1.25-1.25h1.6094c0.69141 0 1.25 0.55859 1.25 1.25zm-6.8242 0c0 0.69141-0.55859 1.25-1.25 1.25h-1.6094c-0.69141 0-1.25-0.55859-1.25-1.25 0-0.69141 0.55859-1.25 1.25-1.25h1.6094c0.69141 0 1.25 0.55859 1.25 1.25zm-6.8281 0c0 0.69141-0.55859 1.25-1.25 1.25h-1.6094c-0.69141 0-1.25-0.55859-1.25-1.25 0-0.69141 0.55859-1.25 1.25-1.25h1.6094c0.69141 0 1.25 0.55859 1.25 1.25z"/>
</svg>