<svg xmlns="http://www.w3.org/2000/svg" viewBox="0 0 500 625" x="0px" y="0px"><g><path d="M299.5,139.51c28.3,7.14,47.33,34.14,52.82,59.42,1.06,4.86,8.42,43.26-19.81,71-29.53,29-70.08,18.85-72.63,18.16-32.91-8.86-57.72-39.75-57.77-72.63C202.05,167,255.69,128.45,299.5,139.51Z"/><path d="M122.71,130.47,139,130a2.49,2.49,0,0,0,2.42-2.57,2.46,2.46,0,0,0-2.58-2.42l-16.3.51a2.5,2.5,0,0,0,.08,5Z"/><path d="M154.47,115.92a1.81,1.81,0,0,0,.4,0,2.49,2.49,0,0,0,2.46-2.1l2.61-16.1A2.5,2.5,0,1,0,155,97l-2.61,16.1A2.49,2.49,0,0,0,154.47,115.92Z"/><path d="M410.23,159.1a2.72,2.72,0,0,0,.69.09,2.49,2.49,0,0,0,2.4-1.81l4.48-15.68a2.5,2.5,0,1,0-4.81-1.37L408.51,156A2.5,2.5,0,0,0,410.23,159.1Z"/><path d="M439.39,175.35l-15.13-7.84a9.48,9.48,0,0,0-8.22-.28l-20.37,8.87c-.24-.69-.48-1.38-.73-2.07l20.22-8.81a9.56,9.56,0,0,0,5.4-6.22l4.55-16.42a2.5,2.5,0,0,0-4.82-1.33l-4.55,16.42a4.54,4.54,0,0,1-2.58,3l-20,8.73a115.83,115.83,0,0,0-29.05-42.24C341,105.91,309.49,95,273,95.45a183.67,183.67,0,0,0-51.4,7.93,164.14,164.14,0,0,0-54.12,31.31,3.09,3.09,0,0,0-.26-.37l-16-18.25a4.57,4.57,0,0,1-1.07-3.78l2.85-16.8a2.5,2.5,0,1,0-4.93-.84l-2.85,16.8a9.52,9.52,0,0,0,2.24,7.92l16,18.25a2,2,0,0,0,.34.31l-1.69,1.56a2,2,0,0,0-.3-.42l-16-18.25a9.46,9.46,0,0,0-7.56-3.25l-17,.67a2.5,2.5,0,0,0-2.4,2.59,2.54,2.54,0,0,0,2.6,2.4l17-.67a4.6,4.6,0,0,1,3.61,1.56l16,18.25a2.26,2.26,0,0,0,.56.46,185.37,185.37,0,0,0-29.88,38.22c-22.79,38.7-29.21,81.26-18.1,119.86,7.49,26,21.8,46.09,37.33,61.27l-14.65,17.7a4.58,4.58,0,0,1-3.56,1.66l-17-.16h0a2.5,2.5,0,0,0,0,5l17,.16h.09a9.53,9.53,0,0,0,7.38-3.47l14.42-17.44c.54.49,1.08,1,1.63,1.47l-14.36,17.37a9.51,9.51,0,0,0-2,8l3.35,16.7a2.5,2.5,0,0,0,2.45,2,2.18,2.18,0,0,0,.5-.05,2.49,2.49,0,0,0,2-2.94l-3.35-16.71a4.57,4.57,0,0,1,1-3.81L157,370.39a184,184,0,0,0,53.37,31.34,181.27,181.27,0,0,0,50,9.82c2.72.13,5.43.2,8.1.2,26.87,0,51.15-6.75,72.26-20.1A123,123,0,0,0,359.58,377l15.76,14.39a4.54,4.54,0,0,1,1.48,3.64l-1,17a2.5,2.5,0,0,0,2.35,2.64h.15a2.5,2.5,0,0,0,2.49-2.35l1-17a9.55,9.55,0,0,0-3.1-7.63l-15.56-14.2,1.52-1.59L380.19,386a9.5,9.5,0,0,0,6.44,2.5,10,10,0,0,0,1.44-.1l16.85-2.54a2.5,2.5,0,1,0-.75-4.94l-16.85,2.53a4.54,4.54,0,0,1-3.76-1.14L368,368.15c27.12-31.18,40.24-77,37.38-132.69-.7-13.71-1.73-33.7-8.16-54.59L418,171.81A4.55,4.55,0,0,1,422,172l15.13,7.84a2.5,2.5,0,0,0,2.3-4.44Zm-104,207.85c-49.05,31-105.53,14.8-121.67,9.1-7.56-2.67-74.4-28-93.45-94.16-10.35-35.93-4.27-75.71,17.11-112,20.44-34.71,52.31-61.42,87.44-73.26h0a176,176,0,0,1,48.33-7.41h2.33c33.34,0,60.88,9.76,81.89,29.05,34.49,31.66,36.83,77.08,38.08,101.49C400.14,328,359.81,367.74,335.35,383.2Z"/><path d="M435.06,181.31l-14.54-7.4a2.5,2.5,0,1,0-2.26,4.46l14.53,7.39a2.44,2.44,0,0,0,1.13.27,2.5,2.5,0,0,0,1.14-4.72Z"/><path d="M148.94,389.68a2.5,2.5,0,0,0-4.91.95l3.09,16a2.49,2.49,0,0,0,2.45,2,2.59,2.59,0,0,0,.47-.05,2.5,2.5,0,0,0,2-2.93Z"/><path d="M130.13,379.13h0a2.5,2.5,0,1,0,0-5l-16.31,0h0a2.5,2.5,0,1,0,0,5Z"/><path d="M402,373.91l-16.15,2.3a2.5,2.5,0,0,0,.35,5l.36,0,16.14-2.3a2.5,2.5,0,1,0-.7-4.95Z"/><path d="M372.07,391.85a2.48,2.48,0,0,0-2.62,2.37l-.83,16.29a2.5,2.5,0,0,0,2.37,2.62h.13a2.5,2.5,0,0,0,2.5-2.37l.82-16.28A2.5,2.5,0,0,0,372.07,391.85Z"/></g></svg>