<svg xmlns="http://www.w3.org/2000/svg" xmlns:xlink="http://www.w3.org/1999/xlink" version="1.1" x="0px" y="0px" viewBox="0 0 100 125" enable-background="new 0 0 100 100" xml:space="preserve"><g><path d="M75.077,84.476L63.729,66.929c-0.021-0.038-0.044-0.075-0.07-0.109l-4.793-7.412c-1.158-1.79-1.77-3.863-1.77-5.995V34.923   h1.329c2.109,0,3.826-1.717,3.826-3.827s-1.717-3.828-3.826-3.828H41.574c-2.11,0-3.827,1.717-3.827,3.828s1.716,3.827,3.827,3.827   h1.33v18.489c0,2.132-0.612,4.205-1.77,5.995l-4.796,7.416c-0.022,0.029-0.042,0.061-0.061,0.093L24.921,84.475   c-1.357,2.101-1.459,4.769-0.263,6.965C25.853,93.636,28.148,95,30.649,95H69.35c2.501,0,4.797-1.364,5.991-3.561   C76.537,89.243,76.436,86.575,75.077,84.476z M73.829,90.616c-0.893,1.643-2.609,2.662-4.479,2.662H30.649   c-1.87,0-3.586-1.02-4.479-2.662c-0.894-1.642-0.818-3.637,0.197-5.207l11.069-17.116c0.122,0.037,0.231,0.084,0.362,0.142   c0.367,0.161,0.823,0.362,1.662,0.362c0.275,0,0.521-0.021,0.753-0.064c0.467-0.086,0.776-0.535,0.689-1.003   c-0.086-0.467-0.533-0.777-1.003-0.689c-0.126,0.024-0.271,0.035-0.439,0.035c-0.477,0-0.673-0.086-0.97-0.216   c-0.031-0.014-0.067-0.028-0.1-0.042l4.188-6.476c0.338-0.523,0.636-1.068,0.893-1.629h4.788c0.476,0,0.861-0.386,0.861-0.86   c0-0.476-0.385-0.861-0.861-0.861h-4.147c0.301-1.027,0.463-2.094,0.498-3.176h3.649c0.476,0,0.861-0.385,0.861-0.86   c0-0.475-0.385-0.86-0.861-0.86h-3.635v-3.176h3.635c0.476,0,0.861-0.385,0.861-0.86s-0.385-0.861-0.861-0.861h-3.635v-3.176h3.635   c0.476,0,0.861-0.386,0.861-0.861s-0.385-0.86-0.861-0.86h-3.635v-3.176h3.635c0.476,0,0.861-0.385,0.861-0.86   c0-0.476-0.385-0.861-0.861-0.861h-3.635v-3.341c0-0.475-0.385-0.86-0.86-0.86h-2.19c-1.161,0-2.105-0.945-2.105-2.106   s0.944-2.106,2.105-2.106h16.852c1.16,0,2.104,0.945,2.104,2.106s-0.944,2.106-2.104,2.106H56.24c-0.001,0-0.004,0-0.005,0h-7.976   c-0.475,0-0.86,0.385-0.86,0.86c0,0.476,0.385,0.861,0.86,0.861h7.116v18.49c0,2.465,0.707,4.86,2.045,6.93l4.187,6.474   c-0.033,0.015-0.07,0.029-0.103,0.043c-0.297,0.131-0.494,0.217-0.973,0.217s-0.675-0.086-0.973-0.217   c-0.367-0.161-0.824-0.361-1.664-0.361c-0.839,0-1.296,0.2-1.663,0.361c-0.298,0.131-0.494,0.217-0.973,0.217   c-0.478,0-0.673-0.086-0.97-0.216c-0.367-0.162-0.823-0.362-1.663-0.362c-0.306,0-0.578,0.025-0.834,0.079   c-0.465,0.097-0.765,0.553-0.668,1.018c0.098,0.466,0.554,0.766,1.019,0.668c0.139-0.029,0.298-0.043,0.483-0.043   c0.479,0,0.674,0.086,0.971,0.216c0.367,0.161,0.823,0.362,1.662,0.362c0.84,0,1.297-0.201,1.664-0.361   c0.297-0.131,0.493-0.217,0.972-0.217s0.676,0.086,0.973,0.217c0.368,0.16,0.824,0.361,1.664,0.361s1.297-0.201,1.664-0.361   c0.133-0.059,0.243-0.106,0.366-0.144l11.07,17.118C74.647,86.979,74.723,88.975,73.829,90.616z"/><path d="M48.259,61.889h-4.495c-0.475,0-0.861,0.386-0.861,0.861c0,0.475,0.386,0.86,0.861,0.86h4.495   c0.476,0,0.861-0.386,0.861-0.86C49.12,62.274,48.735,61.889,48.259,61.889z"/><path d="M48.259,66.786h-4.495c-0.475,0-0.861,0.386-0.861,0.86c0,0.476,0.386,0.861,0.861,0.861h4.495   c0.476,0,0.861-0.386,0.861-0.861C49.12,67.172,48.735,66.786,48.259,66.786z"/><path d="M48.259,71.684h-4.495c-0.475,0-0.861,0.385-0.861,0.86s0.386,0.86,0.861,0.86h4.495c0.476,0,0.861-0.385,0.861-0.86   S48.735,71.684,48.259,71.684z"/><path d="M48.259,76.58h-4.495c-0.475,0-0.861,0.386-0.861,0.861c0,0.475,0.386,0.86,0.861,0.86h4.495   c0.476,0,0.861-0.386,0.861-0.86C49.12,76.966,48.735,76.58,48.259,76.58z"/><path d="M48.259,81.478h-4.495c-0.475,0-0.861,0.386-0.861,0.861c0,0.475,0.386,0.86,0.861,0.86h4.495   c0.476,0,0.861-0.386,0.861-0.86C49.12,81.863,48.735,81.478,48.259,81.478z"/><path d="M48.259,86.375h-4.495c-0.475,0-0.861,0.386-0.861,0.86c0,0.476,0.386,0.861,0.861,0.861h4.495   c0.476,0,0.861-0.386,0.861-0.861C49.12,86.761,48.735,86.375,48.259,86.375z"/><path d="M46.143,24.239c1.859,0,3.371-1.512,3.371-3.371c0-1.858-1.512-3.371-3.371-3.371c-1.858,0-3.371,1.512-3.371,3.371   C42.772,22.727,44.285,24.239,46.143,24.239z M46.143,19.219c0.91,0,1.65,0.74,1.65,1.649s-0.74,1.65-1.65,1.65   c-0.909,0-1.649-0.74-1.649-1.65S45.234,19.219,46.143,19.219z"/><path d="M52.925,18.152c2.372,0,4.302-1.93,4.302-4.302s-1.93-4.302-4.302-4.302c-2.373,0-4.302,1.93-4.302,4.302   S50.552,18.152,52.925,18.152z M52.925,11.269c1.423,0,2.581,1.157,2.581,2.581s-1.158,2.581-2.581,2.581s-2.581-1.158-2.581-2.581   S51.502,11.269,52.925,11.269z"/><path d="M47,10.31c1.464,0,2.655-1.191,2.655-2.655S48.463,5,47,5c-1.464,0-2.655,1.191-2.655,2.655S45.535,10.31,47,10.31z    M47,6.721c0.515,0,0.933,0.419,0.933,0.934S47.514,8.588,47,8.588c-0.515,0-0.934-0.419-0.934-0.934S46.484,6.721,47,6.721z"/></g></svg>