<svg xmlns:dc="http://purl.org/dc/elements/1.1/" xmlns:cc="http://creativecommons.org/ns#" xmlns:rdf="http://www.w3.org/1999/02/22-rdf-syntax-ns#" xmlns:svg="http://www.w3.org/2000/svg" xmlns="http://www.w3.org/2000/svg" viewBox="0 0 11.111459 18.52019125" version="1.1" x="0px" y="0px"><g transform="translate(-175.94844,-91.154148)"><path style="color:#000000;font-style:normal;font-variant:normal;font-weight:normal;font-stretch:normal;font-size:medium;line-height:normal;font-family:sans-serif;font-variant-ligatures:normal;font-variant-position:normal;font-variant-caps:normal;font-variant-numeric:normal;font-variant-alternates:normal;font-feature-settings:normal;text-indent:0;text-align:start;text-decoration:none;text-decoration-line:none;text-decoration-style:solid;text-decoration-color:#000000;letter-spacing:normal;word-spacing:normal;text-transform:none;writing-mode:lr-tb;direction:ltr;text-orientation:mixed;dominant-baseline:auto;baseline-shift:baseline;text-anchor:start;white-space:normal;shape-padding:0;clip-rule:nonzero;display:inline;overflow:visible;visibility:visible;opacity:1;isolation:auto;mix-blend-mode:normal;color-interpolation:sRGB;color-interpolation-filters:linearRGB;solid-color:#000000;solid-opacity:1;vector-effect:none;fill:#000000;fill-opacity:1;fill-rule:evenodd;stroke:none;stroke-width:0.529167;stroke-linecap:round;stroke-linejoin:round;stroke-miterlimit:4;stroke-dasharray:none;stroke-dashoffset:0;stroke-opacity:1;paint-order:fill markers stroke;color-rendering:auto;image-rendering:auto;shape-rendering:auto;text-rendering:auto;enable-background:accumulate" d="m 177.00729,91.154148 c -0.58174,0 -1.05885,0.476594 -1.05885,1.058334 v 12.699488 c 0,0.58174 0.47711,1.05833 1.05885,1.05833 h 8.99583 c 0.58174,0 1.05678,-0.47659 1.05678,-1.05833 V 92.212482 c 0,-0.58174 -0.47504,-1.058334 -1.05678,-1.058334 z m 0,0.529167 h 8.99583 c 0.29774,0 0.52762,0.231426 0.52762,0.529167 v 12.699488 c 0,0.29773 -0.22988,0.52916 -0.52762,0.52916 h -8.99583 c -0.29774,0 -0.52969,-0.23143 -0.52969,-0.52916 V 92.212482 c 0,-0.297741 0.23195,-0.529167 0.52969,-0.529167 z m 1.05833,1.058334 c -0.28859,0 -0.52917,0.241112 -0.52917,0.529682 v 3.703135 c 0,0.288578 0.24057,0.529167 0.52917,0.529167 h 6.87917 c 0.2886,0 0.52916,-0.240589 0.52916,-0.529167 v -3.703135 c 0,-0.28857 -0.24057,-0.529682 -0.52916,-0.529682 z m 0,0.529682 h 6.87917 v 3.703135 h -6.87917 z m 1.05678,0.792718 c -0.34496,0.0077 -0.34496,0.521431 0,0.529167 h 1.58802 c 0.34496,-0.0077 0.34496,-0.521431 0,-0.529167 z m 2.3828,0 c -0.34496,0.0077 -0.34496,0.521431 0,0.529167 h 0.52917 c 0.34496,-0.0077 0.34496,-0.521431 0,-0.529167 z m -0.004,4.230233 c -0.14612,0.0017 -0.26319,0.121562 -0.26148,0.267684 v 0.529683 c -0.008,0.360983 0.53747,0.360983 0.52916,0 v -0.529683 c 0.002,-0.148549 -0.11913,-0.269418 -0.26768,-0.267684 z m -2.05621,0.852659 c -0.009,-1.4e-4 -0.0183,1.93e-4 -0.0274,0.001 -0.22407,0.02226 -0.31971,0.296386 -0.15813,0.453202 l 0.37465,0.375171 c 0.25009,0.259066 0.63355,-0.126519 0.3731,-0.375171 l -0.3731,-0.373105 c -0.0495,-0.05146 -0.11773,-0.08072 -0.18914,-0.08113 z m 4.11293,0.001 c -0.0693,0.0016 -0.13515,0.03041 -0.18345,0.0801 l -0.3731,0.373105 c -0.26045,0.248652 0.12301,0.634234 0.3731,0.375171 l 0.37517,-0.375171 c 0.17098,-0.168149 0.048,-0.458805 -0.19172,-0.453202 z m -2.05259,0.738457 c -0.87361,0 -1.588,0.712332 -1.58801,1.585952 0,0.87362 0.71439,1.58802 1.58801,1.58802 0.87362,-1e-5 1.58595,-0.71441 1.58595,-1.58802 0,-0.87362 -0.71233,-1.585952 -1.58595,-1.585952 z m 0,0.527092 c 0.58764,0 1.05678,0.47121 1.05679,1.05886 0,0.58763 -0.46915,1.05834 -1.05679,1.05834 -0.58763,0 -1.05885,-0.47071 -1.05885,-1.05834 0,-0.58764 0.47122,-1.05886 1.05885,-1.05886 z m 0,0.5297 c -0.28911,-2e-5 -0.52916,0.24003 -0.52916,0.52916 -1e-5,0.28912 0.24004,0.52918 0.52916,0.52916 0.28912,0 0.52918,-0.24006 0.52917,-0.52916 0,-0.28912 -0.24005,-0.52916 -0.52917,-0.52916 z m 2.35338,0.26561 c -0.34476,0.0254 -0.31814,0.53949 0.0274,0.52917 h 0.52916 c 0.36069,0.008 0.36069,-0.53717 0,-0.52917 -0.21069,-1.2e-4 -0.37495,-1.6e-4 -0.55656,0 z m -5.29066,0 c -0.34454,0.0243 -0.31999,0.53788 0.0253,0.52917 h 0.52916 c 0.36069,0.008 0.36069,-0.53717 0,-0.52917 z m 4.61677,1.68052 c -0.008,-7e-5 -0.0169,2.6e-4 -0.0253,0.001 -0.22406,0.0223 -0.31971,0.29638 -0.15813,0.4532 l 0.3731,0.37466 c 0.24971,0.26092 0.63575,-0.1246 0.37517,-0.37466 l -0.37517,-0.3731 c -0.0496,-0.0516 -0.11807,-0.0808 -0.18965,-0.0811 z m -3.36879,0.001 c -0.0687,0.002 -0.13398,0.0308 -0.1819,0.0801 l -0.37465,0.3731 c -0.27192,0.24953 0.12512,0.64657 0.37465,0.37466 l 0.3731,-0.37466 c 0.17078,-0.16797 0.0483,-0.45831 -0.1912,-0.4532 z m 1.68517,0.69505 c -0.14694,0.002 -0.26434,0.12283 -0.26148,0.26975 v 0.5271 c -0.008,0.36098 0.53747,0.36098 0.52916,0 v -0.5271 c 0.003,-0.14936 -0.11831,-0.27151 -0.26768,-0.26975 z"/></g></svg>