<svg xmlns="http://www.w3.org/2000/svg" data-name="Layer 1" viewBox="0 0 512 309.4275" x="0px" y="0px"><path d="M504.511,228.821a44.982,44.982,0,0,1-44.931-44.932V168.912A59.976,59.976,0,0,0,399.672,109h-9.023c-2.6-13.563-7.682-25.453-15.446-35.51-17.274-22.374-46.46-35.137-86.744-37.934-27.3-1.9-52.279,1.351-64.688,3.442C215.49,15.736,194.385,0,175.016,0c-28.868,0-56.164,27.294-56.164,56.164a52.634,52.634,0,0,0,1.3,11.653H89.729a37.585,37.585,0,0,1-.831-7.488c0-15.363,11.9-31.861,27.676-38.379a7.489,7.489,0,1,0-5.718-13.844c-21.4,8.842-36.935,30.805-36.935,52.223a52.883,52.883,0,0,0,.654,8.125,37.516,37.516,0,0,0-30.421,33.062H22.518a22.45,22.45,0,0,0-17.734,8.612A22.036,22.036,0,0,0,.619,129.023c5.5,22.773,27.446,60.636,112.372,62.3l3.722,14.888c-13.88.334-37.782,3.088-48.562,17.262a14.994,14.994,0,0,0,11.928,24.071H219.948a7.489,7.489,0,0,0,0-14.977l-139.876-.028c8.4-11.046,36.572-11.821,45.775-11.221a7.491,7.491,0,0,0,7.759-9.288l-7.488-29.954a7.488,7.488,0,0,0-7.266-5.673c-34.133,0-92.988-6.611-103.673-50.89a7.072,7.072,0,0,1,1.372-6.117,7.555,7.555,0,0,1,5.967-2.9H51.456A7.489,7.489,0,0,0,58.944,109V105.26A22.491,22.491,0,0,1,81.41,82.794h49.2a7.487,7.487,0,0,0,6.772-10.682,37.1,37.1,0,0,1-3.555-15.948c0-20.785,20.4-41.187,41.187-41.187,20.74,0,37.443,24.581,37.443,44.931,0,12.643-8.074,23.724-21.6,29.644a7.488,7.488,0,1,0,6,13.719c19.142-8.377,30.572-24.588,30.572-43.363,0-2.127-.109-4.22-.314-6.276,11.111-1.809,34.94-4.884,60.3-3.132,35.83,2.49,61.374,13.3,75.923,32.146,23.066,29.876,18.557,80.3-13.386,149.919l-85.526.016c13.368-27.725,31.885-41.2,56.607-41.2a7.489,7.489,0,0,0,0-14.977c-30.62,0-54.2,16.714-70.1,49.679a14.976,14.976,0,0,0,13.514,21.462h90.283a7.492,7.492,0,0,0,6.779-4.306c22.323-47.525,32.615-87.376,30.95-119.255h7.2A44.981,44.981,0,0,1,444.6,168.912v14.977A59.978,59.978,0,0,0,504.511,243.8a7.489,7.489,0,1,0,0-14.977Z"/></svg>