<svg xmlns="http://www.w3.org/2000/svg" xmlns:xlink="http://www.w3.org/1999/xlink" xmlns:xodm="http://www.corel.com/coreldraw/odm/2003" xml:space="preserve" version="1.1" style="shape-rendering:geometricPrecision;text-rendering:geometricPrecision;image-rendering:optimizeQuality;" viewBox="0 0 8.4666 10.58325" x="0px" y="0px" fill-rule="evenodd" clip-rule="evenodd"><defs><style type="text/css">
   
    .fil0 {fill:black;fill-rule:nonzero}
   
  </style></defs><g><path class="fil0" d="M4.2333 1.6619c1.0717,0 2.0448,0.224 2.7515,0.5858 0.7306,0.3741 1.1834,0.8996 1.1855,1.4879l0 0.004 0 0.9874c0,0.5899 -0.4532,1.117 -1.1855,1.4919 -0.7067,0.3618 -1.6798,0.5858 -2.7515,0.5858 -1.0717,0 -2.0448,-0.224 -2.7515,-0.5858 -0.7323,-0.3749 -1.1855,-0.902 -1.1855,-1.4919l0 -0.9874 0 -0.004c0.0021,-0.5883 0.4549,-1.1138 1.1855,-1.4879 0.7067,-0.3618 1.6798,-0.5858 2.7515,-0.5858zm-1.5505 3.1921c-0.0703,0 -0.1272,-0.0569 -0.1272,-0.127 0,-0.0701 0.0569,-0.127 0.127,-0.127 0.0706,0 0.1275,0.0569 0.1275,0.127 0,0.0701 -0.0569,0.127 -0.1273,0.127zm3.1342 -0.864c-0.0703,0 -0.1272,-0.0569 -0.1272,-0.127 0,-0.0701 0.0569,-0.127 0.127,-0.127 0.0706,0 0.1275,0.0569 0.1275,0.127 0,0.0701 -0.0569,0.127 -0.1273,0.127zm0.7034 0.2403c0.0493,-0.0495 0.1296,-0.0498 0.1791,-0.0005 0.0495,0.0493 0.0498,0.1296 0.0005,0.1791 -0.2181,0.2198 -0.4877,0.3707 -0.7766,0.4441 -0.2889,0.0735 -0.5979,0.0698 -0.8943,-0.0191 -0.0671,-0.0199 -0.1052,-0.0906 -0.0853,-0.1577 0.0199,-0.0671 0.0906,-0.1052 0.1577,-0.0853 0.2515,0.0754 0.5139,0.0785 0.7593,0.0161 0.2457,-0.0625 0.4748,-0.1905 0.6596,-0.3767zm-4.5742 0.0196c-0.0493,0.0495 -0.1296,0.0498 -0.1791,0.0005 -0.0495,-0.0493 -0.0498,-0.1296 -0.0005,-0.1791 0.218,-0.2199 0.4877,-0.3708 0.7765,-0.4442 0.2891,-0.0735 0.5981,-0.0698 0.8944,0.0191 0.0671,0.0199 0.1052,0.0906 0.0853,0.1577 -0.0199,0.0671 -0.0906,0.1052 -0.1577,0.0853 -0.2515,-0.0754 -0.5139,-0.0785 -0.7594,-0.0161 -0.2456,0.0624 -0.4747,0.1905 -0.6595,0.3768zm5.9701 0.2322c-0.2047,0.2865 -0.525,0.5414 -0.9314,0.7495 -0.7068,0.3618 -1.68,0.5857 -2.7516,0.5857 -1.0716,0 -2.0448,-0.2239 -2.7516,-0.5857 -0.4064,-0.2081 -0.7267,-0.463 -0.9314,-0.7495l0 0.2449c0,0.4872 0.4001,0.9358 1.0465,1.2667 0.672,0.3441 1.6041,0.557 2.6365,0.557 1.0324,0 1.9645,-0.2129 2.6365,-0.557 0.6464,-0.3309 1.0465,-0.7795 1.0465,-1.2667l0 -0.2449zm-7.3408 -0.5317c0.2787,-0.37 0.7536,-0.6866 1.3566,-0.9139 0.6456,-0.2433 1.4417,-0.3872 2.3012,-0.3872 0.8755,0 1.6854,0.1494 2.3376,0.4012 0.5857,0.2262 1.0472,0.5371 1.3203,0.8997 0.0166,-0.0692 0.0251,-0.1395 0.0251,-0.2106 0,-0.4872 -0.4001,-0.9358 -1.0465,-1.2667 -0.672,-0.3441 -1.6041,-0.557 -2.6365,-0.557 -1.0324,0 -1.9645,0.2129 -2.6365,0.557 -0.6464,0.3309 -1.0465,0.7795 -1.0465,1.2667 0,0.0712 0.0086,0.1415 0.0252,0.2108zm7.2006 0.2828c-0.2198,-0.3785 -0.6812,-0.709 -1.2964,-0.9465 -0.6233,-0.2407 -1.4013,-0.3834 -2.2464,-0.3834 -0.8293,0 -1.5944,0.1376 -2.212,0.3704 -0.6216,0.2343 -1.0907,0.5626 -1.3194,0.94 -0.0038,0.0063 -0.008,0.0121 -0.0127,0.0174 0.1694,0.2938 0.486,0.5595 0.9075,0.7753 0.672,0.344 1.6041,0.5569 2.6366,0.5569 1.0325,0 1.9646,-0.2129 2.6366,-0.5569 0.4205,-0.2153 0.7365,-0.4802 0.9062,-0.7732z"/></g></svg>