<svg xmlns="http://www.w3.org/2000/svg" viewBox="0 0 100 125" x="0px" y="0px"><defs><style>.cls-1{fill:none;stroke:#000;stroke-miterlimit:10;stroke-width:0.75px;}</style></defs><title>plates 48 well top</title><g data-name="Layer 10"><rect class="cls-1" x="3.34" y="19.98" width="93.31" height="60.04"/><circle class="cls-1" cx="44.44" cy="25.82" r="4.47"/><circle class="cls-1" cx="33.99" cy="25.83" r="4.47"/><circle class="cls-1" cx="23.54" cy="25.83" r="4.47"/><circle class="cls-1" cx="13.09" cy="25.81" r="4.47"/><circle class="cls-1" cx="86.24" cy="25.84" r="4.47"/><circle class="cls-1" cx="75.79" cy="25.85" r="4.47"/><circle class="cls-1" cx="65.34" cy="25.86" r="4.47"/><circle class="cls-1" cx="54.89" cy="25.86" r="4.47"/><circle class="cls-1" cx="44.44" cy="35.51" r="4.47"/><circle class="cls-1" cx="33.99" cy="35.52" r="4.47"/><circle class="cls-1" cx="23.54" cy="35.53" r="4.47"/><circle class="cls-1" cx="13.09" cy="35.51" r="4.47"/><circle class="cls-1" cx="86.24" cy="35.54" r="4.47"/><circle class="cls-1" cx="75.79" cy="35.54" r="4.47"/><circle class="cls-1" cx="65.34" cy="35.55" r="4.47"/><circle class="cls-1" cx="54.89" cy="35.56" r="4.47"/><circle class="cls-1" cx="44.44" cy="45.21" r="4.47"/><circle class="cls-1" cx="33.99" cy="45.22" r="4.47"/><circle class="cls-1" cx="23.54" cy="45.22" r="4.47"/><circle class="cls-1" cx="13.09" cy="45.2" r="4.47"/><circle class="cls-1" cx="86.24" cy="45.23" r="4.47"/><circle class="cls-1" cx="75.79" cy="45.24" r="4.47"/><circle class="cls-1" cx="65.34" cy="45.24" r="4.47"/><circle class="cls-1" cx="54.89" cy="45.25" r="4.47"/><circle class="cls-1" cx="44.44" cy="54.9" r="4.47"/><circle class="cls-1" cx="33.99" cy="54.91" r="4.47"/><circle class="cls-1" cx="23.54" cy="54.92" r="4.47"/><circle class="cls-1" cx="13.09" cy="54.9" r="4.47"/><circle class="cls-1" cx="86.24" cy="54.92" r="4.47"/><circle class="cls-1" cx="75.79" cy="54.93" r="4.47"/><circle class="cls-1" cx="65.34" cy="54.94" r="4.47"/><circle class="cls-1" cx="54.89" cy="54.95" r="4.47"/><circle class="cls-1" cx="44.44" cy="64.6" r="4.47"/><circle class="cls-1" cx="33.99" cy="64.6" r="4.47"/><circle class="cls-1" cx="23.54" cy="64.61" r="4.47"/><circle class="cls-1" cx="13.09" cy="64.59" r="4.47"/><circle class="cls-1" cx="86.24" cy="64.62" r="4.47"/><circle class="cls-1" cx="75.79" cy="64.63" r="4.47"/><circle class="cls-1" cx="65.34" cy="64.63" r="4.47"/><circle class="cls-1" cx="54.89" cy="64.64" r="4.47"/><circle class="cls-1" cx="44.44" cy="74.29" r="4.47"/><circle class="cls-1" cx="33.99" cy="74.3" r="4.47"/><circle class="cls-1" cx="23.54" cy="74.31" r="4.47"/><circle class="cls-1" cx="13.09" cy="74.28" r="4.47"/><circle class="cls-1" cx="86.24" cy="74.31" r="4.47"/><circle class="cls-1" cx="75.79" cy="74.32" r="4.47"/><circle class="cls-1" cx="65.34" cy="74.33" r="4.47"/><circle class="cls-1" cx="54.89" cy="74.33" r="4.47"/></g></svg>