<svg xmlns="http://www.w3.org/2000/svg" viewBox="0 0 64 80" x="0px" y="0px"><title>chemistry</title><g data-name="Layer 18"><path d="M50.19,62H14.25a4,4,0,0,1-3.49-6L25,31.29V11.87A4,4,0,0,1,26,4H38a4,4,0,0,1,1,7.87V30.52L53.69,56a4,4,0,0,1-3.5,6ZM26,6a2,2,0,0,0-2,2,2,2,0,0,0,2,2,1,1,0,0,1,1,1V31.56a1.06,1.06,0,0,1-.13.5L12.5,57a2,2,0,0,0,1.75,3H50.19A2,2,0,0,0,52,57L37.13,31.29a1.06,1.06,0,0,1-.13-.5V11a1,1,0,0,1,1-1,2,2,0,0,0,2-2,2,2,0,0,0-2-2Z"/><path d="M48.35,58H16.45a1,1,0,0,1-.87-.5,1,1,0,0,1,0-1l9.13-15.81a1,1,0,0,1,.18-.23c1.43-1.33,4.9-3.08,7.82-.17,2.55,2.55,7,1.3,7,1.28a1,1,0,0,1,1.15.46L49.21,56.5a1,1,0,0,1-.86,1.5ZM18.18,56H46.61L39.5,43.67c-1.65.32-5.55.7-8.21-2-2.06-2.07-4.41-.32-4.93.12Z"/></g></svg>