<svg xmlns="http://www.w3.org/2000/svg" viewBox="0 0 100 125" x="0px" y="0px"><g data-name="Layer 2"><path d="M41.66,62.21,42.49,10a.9.9,0,0,0-.26-.64.91.91,0,0,0-.64-.27H35.66a.91.91,0,0,0-.64.27.9.9,0,0,0-.26.64l.83,52.22L28.4,69a4.84,4.84,0,0,0-1.53,3.52V86.08a4.85,4.85,0,0,0,4.85,4.84H45.53a4.84,4.84,0,0,0,4.84-4.84V72.5A4.83,4.83,0,0,0,48.85,69Zm6.91,23.87a3,3,0,0,1-3,3H31.72a3.05,3.05,0,0,1-3-3V72.5a3,3,0,0,1,1-2.21l7.19-6.77a1,1,0,0,0,.32-.21.89.89,0,0,0,.25-.64l-.81-51.79h4.09l-.82,51.79a1,1,0,0,0,.51.79l7.25,6.83a3,3,0,0,1,1,2.21Z"/><path d="M33.94,71.2a.91.91,0,0,0-.9.9V85.38a.9.9,0,1,0,1.8,0V72.1A.9.9,0,0,0,33.94,71.2Z"/><path d="M38.62,71.2a.91.91,0,0,0-.9.9V85.38a.9.9,0,1,0,1.8,0V72.1A.9.9,0,0,0,38.62,71.2Z"/><path d="M43.3,71.2a.91.91,0,0,0-.9.9V85.38a.9.9,0,1,0,1.8,0V72.1A.9.9,0,0,0,43.3,71.2Z"/><path d="M38.62,13.88a.74.74,0,1,0-.74-.74A.74.74,0,0,0,38.62,13.88Z"/><path d="M97.62,75.36H87.47V26.44h0a.9.9,0,0,0,.9-.88L88.64,10a.85.85,0,0,0-.25-.64.91.91,0,0,0-.64-.27H81.82a.91.91,0,0,0-.64.27.9.9,0,0,0-.26.64l.25,15.57a.89.89,0,0,0,.9.88h0V75.36H71.94a.9.9,0,0,0-.9.9c0,8.08,6.17,14.66,13.74,14.66s13.74-6.58,13.74-14.66A.9.9,0,0,0,97.62,75.36ZM84.78,89.12c-6.3,0-11.48-5.29-11.91-12H96.7C96.26,83.83,91.09,89.12,84.78,89.12Zm-2-78.24h4.1l-.22,13.76H83Zm2.94,15.56V75.36H83.89V26.44Z"/><path d="M84.78,13.88a.74.74,0,1,0-.74-.74A.74.74,0,0,0,84.78,13.88Z"/><path d="M16.57,59.34,17.35,10a.9.9,0,0,0-.26-.64.91.91,0,0,0-.64-.27H10.52a.91.91,0,0,0-.64.27.9.9,0,0,0-.26.64l.78,49.35a11.28,11.28,0,0,0-6.78,4.77c-2.25,3.44-2.73,8.28-1.4,14C4,85.53,8.69,90.92,13.48,90.92S23,85.65,24.75,78.09c1.33-5.7.85-10.54-1.4-14A11.28,11.28,0,0,0,16.57,59.34ZM23,77.68c-1.55,6.63-5.55,11.44-9.52,11.44S5.52,84.31,4,77.68c-1.22-5.21-.82-9.57,1.16-12.59a9.58,9.58,0,0,1,6.35-4.15.89.89,0,0,0,.73-.9l-.77-49.16h4.09L14.76,60a.89.89,0,0,0,.73.9,9.58,9.58,0,0,1,6.35,4.15C23.82,68.11,24.21,72.47,23,77.68Z"/><path d="M13.48,12.4a.74.74,0,1,0,.74.74A.74.74,0,0,0,13.48,12.4Z"/><path d="M63.63,26.44h.16a.89.89,0,0,0,.9-.88L64.94,10a.9.9,0,0,0-.26-.64A.91.91,0,0,0,64,9.08H58.11a.91.91,0,0,0-.64.27.9.9,0,0,0-.26.64l.25,15.57a.9.9,0,0,0,.9.88h.16v33c-3.41,3.33-5.75,12.73-5.75,19.26,0,11.79,8.19,12.21,8.28,12.21h.06c.08,0,8.27-.42,8.27-12.21,0-6.53-2.34-15.93-5.75-19.26Zm-4.38-1.8L59,10.88h4.09l-.21,13.76H59.25Zm2.58,1.8v31.9a3,3,0,0,0-.66-.11H61a2.85,2.85,0,0,0-.65.11V26.44ZM60.18,64.32V87.67C56.31,82,58.29,70.86,60.18,64.32Zm1.8,0c1.88,6.55,3.86,17.68,0,23.35Zm-2.7-3.06c-2,5.77-5.43,19.32-1,26.8-1.77-1.21-3.71-3.8-3.71-9.35C54.57,71.74,57,64.17,59.28,61.26Zm4.6,26.8c4.42-7.48,1-21-1-26.8,2.3,2.9,4.71,10.48,4.71,17.45C67.58,84.27,65.64,86.85,63.88,88.06Z"/><path d="M61.08,12.4a.74.74,0,1,0,.74.74A.74.74,0,0,0,61.08,12.4Z"/></g></svg>