<svg xmlns="http://www.w3.org/2000/svg" data-name="Layer 1" viewBox="0 0 95 118.75" x="0px" y="0px"><path d="M38.7,27.154H32.517a1.507,1.507,0,0,0-1.556,1.45v6.465c0,.025,0,.051,0,.077s.006.06.011.09a.524.524,0,0,0,.008.053c.008.044.037.154.051.2a1.518,1.518,0,0,0,1.095.961c.036.008.093.018.15.026l.058.008-.041,0,.045,0q.033,0,.066.006l.11,0h6.2c.034,0,.071,0,.107-.005a.9.9,0,0,0,.091-.009c.052-.007.146-.024.18-.032a1.506,1.506,0,0,0,1.086-.959,1.276,1.276,0,0,0,.052-.2c0-.018.007-.037.009-.055l0-.027a.778.778,0,0,0,.007-.082.807.807,0,0,0,0-.083V28.6A1.508,1.508,0,0,0,38.7,27.154Zm-.224,7.554H32.744V28.937h5.728Zm.224,3.6H32.517a1.507,1.507,0,0,0-1.556,1.449v6.466c0,.024,0,.05,0,.077a.771.771,0,0,0,.01.084c0,.024.006.047.011.07.008.041.036.148.05.188a1.523,1.523,0,0,0,1.11.961l.272-.857-.247.855a.879.879,0,0,0,.134.029c.027,0,.055.007.082.009.047,0,.094,0,.131,0h6.214l.077,0a1.037,1.037,0,0,0,.146-.017c.048-.008.113-.02.138-.026a1.5,1.5,0,0,0,1.084-.952,1.217,1.217,0,0,0,.055-.211l.007-.041.005-.035a.735.735,0,0,0,.007-.082.775.775,0,0,0,0-.082V39.761A1.508,1.508,0,0,0,38.7,38.312Zm-.224,7.553H32.744V40.1h5.728Zm.224,3.6H32.517a1.507,1.507,0,0,0-1.556,1.449v6.466c0,.024,0,.051,0,.077s.006.059.01.087a.562.562,0,0,0,.009.057,1.9,1.9,0,0,0,.052.2,1.524,1.524,0,0,0,1.11.962l.111.02a.932.932,0,0,0,.106.015c.026,0,.046,0,.08,0l.075,0H38.7c.019,0,.039,0,.059,0s.057,0,.086,0h.01c.031,0,.061-.007.091-.012l.016,0c.048-.008.11-.019.134-.025a1.507,1.507,0,0,0,1.084-.952,1.3,1.3,0,0,0,.056-.217l.006-.035h0l.005-.036a.738.738,0,0,0,.007-.081.781.781,0,0,0,0-.083V50.919A1.508,1.508,0,0,0,38.7,49.47Zm-.224,7.555H32.744V51.252h5.728Zm4.619-26.963a.891.891,0,0,1,.891-.891h6.684a.892.892,0,0,1,0,1.783H43.982A.891.891,0,0,1,43.091,30.062Zm0,3.52a.891.891,0,0,1,.891-.891H57.525a.891.891,0,1,1,0,1.782H43.982A.891.891,0,0,1,43.091,33.582Zm0,7.638a.891.891,0,0,1,.891-.891h6.684a.891.891,0,0,1,0,1.782H43.982A.891.891,0,0,1,43.091,41.22Zm14.434,4.411H43.982a.891.891,0,0,1,0-1.782H57.525a.891.891,0,1,1,0,1.782ZM33.308,32.519a.891.891,0,1,1,1.207-1.312l.619.569,1.485-1.77a.892.892,0,0,1,1.366,1.146L35.9,33.637a.9.9,0,0,1-.626.317h-.057a.891.891,0,0,1-.6-.235Zm0,11.158a.891.891,0,0,1,1.207-1.312l.619.57,1.485-1.771a.892.892,0,0,1,1.366,1.146L35.9,44.8a.9.9,0,0,1-.626.317h-.057a.891.891,0,0,1-.6-.235Zm35.42,15.284a2.521,2.521,0,0,0-.6-3.491L66.5,54.312a.692.692,0,0,1-.305-.537l-.169-1.907a2.506,2.506,0,0,0-1.358-2.013V25.605a.888.888,0,0,0-.312-.677l-8.88-7.58a.888.888,0,0,0-.578-.214H29.992a4.179,4.179,0,0,0-4.175,4.173V59.174a4.179,4.179,0,0,0,4.175,4.175H47.216a2.519,2.519,0,0,0,1.806,2.793l.21.058v8.517a.892.892,0,0,0,1.516.637l2.177-2.136L55.1,75.354a.892.892,0,0,0,1.516-.637V69.548l.747-.34a.682.682,0,0,1,.616,0l.669.313v7.454a.891.891,0,0,0,1.515.636l2.177-2.134,2.176,2.134a.891.891,0,0,0,1.515-.636V66.184l.2-.054a2.521,2.521,0,0,0,1.785-3.06l-.5-1.936a.68.68,0,0,1,.108-.6Zm-12.936-39,5.572,4.756H55.792ZM27.6,59.174V21.307a2.394,2.394,0,0,1,2.392-2.39H54.01v6.688a.891.891,0,0,0,.891.892h7.988V49.613l-1.554.123a.7.7,0,0,1-.577-.213L59.4,48.168a2.524,2.524,0,0,0-3.544-.016l-1.424,1.4a.684.684,0,0,1-.577.205l-1.909-.165a2.517,2.517,0,0,0-2.726,2.265l-.189,1.987a.689.689,0,0,1-.311.532l-1.571,1.1a2.523,2.523,0,0,0-.63,3.486l1.133,1.646a.676.676,0,0,1,.1.6l-.1.355H29.992A2.4,2.4,0,0,1,27.6,59.174ZM53.549,71.333a.893.893,0,0,0-1.248,0L51.015,72.6V66.71a.678.678,0,0,1,.4.361l.811,1.739a2.388,2.388,0,0,0,2.608,1.417v2.367Zm9.415,2.259a.893.893,0,0,0-1.248,0L60.43,74.853V70.219a2.517,2.517,0,0,0,2.622-1.4l.858-1.8a.687.687,0,0,1,.339-.328v8.159Zm4.3-15.654-1.1,1.572a2.476,2.476,0,0,0-.373,2.073l.5,1.934a.733.733,0,0,1-.52.891l-1.853.5a2.49,2.49,0,0,0-1.62,1.348l-.859,1.8a.737.737,0,0,1-.971.351l-1.738-.812a2.48,2.48,0,0,0-2.108-.008l-1.816.828a.735.735,0,0,1-.969-.357l-.81-1.738a2.473,2.473,0,0,0-1.609-1.361L49.5,64.424a.738.738,0,0,1-.515-.9l.5-1.85a2.466,2.466,0,0,0-.355-2.08l-1.132-1.644a.736.736,0,0,1,.184-1.016l1.57-1.1a2.477,2.477,0,0,0,1.063-1.823L51,52.028a.735.735,0,0,1,.731-.662l.065,0,1.909.165a2.457,2.457,0,0,0,1.984-.711l1.423-1.4a.736.736,0,0,1,1.033.007L59.5,50.785a2.477,2.477,0,0,0,1.976.728l1.991-.158a.726.726,0,0,1,.786.668l.169,1.908a2.479,2.479,0,0,0,1.046,1.832l1.625,1.158A.735.735,0,0,1,67.268,57.938Zm-9.635-6.3a7.212,7.212,0,1,0,7.21,7.21A7.219,7.219,0,0,0,57.633,51.635Zm0,12.64a5.429,5.429,0,1,1,5.428-5.43A5.436,5.436,0,0,1,57.633,64.275ZM61.6,56.352a.891.891,0,0,1-.074,1.258l-4.282,3.807a.89.89,0,0,1-1.222-.037L53.7,59.06a.891.891,0,1,1,1.261-1.26l1.725,1.726,3.654-3.248A.891.891,0,0,1,61.6,56.352Z"/></svg>