<svg xmlns="http://www.w3.org/2000/svg" xmlns:xlink="http://www.w3.org/1999/xlink" version="1.1" x="0px" y="0px" viewBox="0 0 32 40" enable-background="new 0 0 32 32" xml:space="preserve"><path d="M20.865,7.234h-2.938V6.949c0-0.621-0.504-1.125-1.125-1.125h-0.91c-0.051-1.351-1.164-2.434-2.527-2.434  s-2.477,1.083-2.527,2.434h-0.91c-0.621,0-1.125,0.504-1.125,1.125v0.285H5.865c-0.621,0-1.125,0.505-1.125,1.125v19.125  c0,0.62,0.504,1.125,1.125,1.125h15c0.621,0,1.125-0.505,1.125-1.125V8.359C21.99,7.739,21.486,7.234,20.865,7.234z M9.553,6.949  c0-0.207,0.168-0.375,0.375-0.375h1.303c0.109,0,0.211-0.047,0.283-0.128c0.07-0.081,0.104-0.188,0.09-0.296  c-0.01-0.075-0.018-0.152-0.018-0.23c0-0.981,0.799-1.779,1.779-1.779s1.779,0.798,1.779,1.779c0,0.078-0.008,0.155-0.018,0.23  c-0.014,0.107,0.02,0.215,0.09,0.296c0.072,0.081,0.174,0.128,0.283,0.128h1.303c0.207,0,0.375,0.168,0.375,0.375v2.25  c0,0.207-0.168,0.375-0.375,0.375H9.928c-0.207,0-0.375-0.168-0.375-0.375V6.949z M21.24,27.484c0,0.207-0.168,0.375-0.375,0.375  h-15c-0.207,0-0.375-0.168-0.375-0.375V8.359c0-0.207,0.168-0.375,0.375-0.375h2.938v1.215c0,0.62,0.504,1.125,1.125,1.125h6.875  c0.621,0,1.125-0.505,1.125-1.125V7.984h2.938c0.207,0,0.375,0.168,0.375,0.375V27.484z"/><circle cx="13.365" cy="5.92" r="0.692"/><path d="M25.969,10.328h-0.457c-0.713,0-1.291,0.579-1.291,1.291v13.763c0,0.048,0.008,0.095,0.027,0.14l1.145,2.853  c0.057,0.143,0.195,0.235,0.348,0.235s0.291-0.093,0.348-0.235l1.146-2.853c0.018-0.044,0.025-0.092,0.025-0.14V11.619  C27.26,10.907,26.682,10.328,25.969,10.328z M25.512,11.078h0.457c0.299,0,0.541,0.243,0.541,0.541v1.334h-1.539v-1.334  C24.971,11.321,25.213,11.078,25.512,11.078z M24.971,24.766V13.703h1.539v11.063H24.971z M25.74,27.228l-0.688-1.712h1.375  L25.74,27.228z"/><path d="M11.211,10.891H7.365c-0.207,0-0.375,0.168-0.375,0.375v3.281c0,0.207,0.168,0.375,0.375,0.375h3.846  c0.207,0,0.375-0.168,0.375-0.375v-3.281C11.586,11.059,11.418,10.891,11.211,10.891z M10.836,14.172H7.74v-2.531h3.096V14.172z"/><rect x="12.672" y="12.531" width="6.975" height="0.75"/><path d="M11.211,16.375H7.365c-0.207,0-0.375,0.168-0.375,0.375v3.281c0,0.207,0.168,0.375,0.375,0.375h3.846  c0.207,0,0.375-0.168,0.375-0.375V16.75C11.586,16.543,11.418,16.375,11.211,16.375z M10.836,19.656H7.74v-2.531h3.096V19.656z"/><rect x="12.672" y="18.016" width="6.975" height="0.75"/><path d="M11.211,21.859H7.365c-0.207,0-0.375,0.168-0.375,0.375v3.281c0,0.207,0.168,0.375,0.375,0.375h3.846  c0.207,0,0.375-0.168,0.375-0.375v-3.281C11.586,22.027,11.418,21.859,11.211,21.859z M10.836,25.141H7.74v-2.531h3.096V25.141z"/><rect x="12.672" y="23.5" width="6.975" height="0.75"/></svg>