<svg xmlns="http://www.w3.org/2000/svg" xmlns:xlink="http://www.w3.org/1999/xlink" version="1.1" x="0px" y="0px" viewBox="0 0 70 87.5" style="enable-background:new 0 0 70 70;" xml:space="preserve"><g><g><path d="M21.8598633,18.4038086c-0.1298828,0-0.2607422-0.0200195-0.3798828-0.0703125    c-0.1201172-0.0498047-0.2304688-0.1298828-0.3300781-0.2197266c-0.0898438-0.0898438-0.1601563-0.2001953-0.2099609-0.3300781    c-0.0507813-0.1201172-0.0800781-0.25-0.0800781-0.3798828s0.0292969-0.2602539,0.0800781-0.3798828    c0.0498047-0.1201172,0.1201172-0.2304688,0.2099609-0.3300781c0.3798828-0.3603516,1.0498047-0.3603516,1.4199219,0    c0.0898438,0.0996094,0.1601563,0.2099609,0.2197266,0.3300781c0.0498047,0.1196289,0.0703125,0.25,0.0703125,0.3798828    s-0.0205078,0.2597656-0.0703125,0.3798828c-0.0595703,0.1298828-0.1298828,0.2402344-0.2197266,0.3300781    s-0.2001953,0.1699219-0.3300781,0.2197266C22.1196289,18.3837891,21.9897461,18.4038086,21.8598633,18.4038086z"/></g><g><path d="M25.8598633,18.4038086c-0.1298828,0-0.2607422-0.0200195-0.3798828-0.0703125    c-0.1201172-0.0595703-0.2304688-0.1298828-0.3203125-0.2197266c-0.1904297-0.1899414-0.2998047-0.4399414-0.2998047-0.7099609    c0-0.1298828,0.0292969-0.2602539,0.0800781-0.3798828c0.0498047-0.1201172,0.1201172-0.2304688,0.2197266-0.3203125    c0.3603516-0.3798828,1.0400391-0.3798828,1.4101563,0c0.0898438,0.0898438,0.1601563,0.2001953,0.2197266,0.3203125    c0.0498047,0.1196289,0.0703125,0.25,0.0703125,0.3798828c0,0.2700195-0.1005859,0.5297852-0.2900391,0.7099609    C26.3793945,18.293457,26.1293945,18.4038086,25.8598633,18.4038086z"/></g><g><path d="M17.8598633,18.4038086c-0.2607422,0-0.5205078-0.1000977-0.7001953-0.2900391    c-0.1904297-0.1899414-0.2998047-0.4399414-0.2998047-0.7099609c0-0.1298828,0.0292969-0.2602539,0.0800781-0.3798828    c0.0498047-0.1201172,0.1201172-0.2304688,0.2197266-0.3300781c0.0400391-0.0400391,0.0898438-0.0800781,0.1503906-0.1201172    c0.0498047-0.0400391,0.109375-0.0698242,0.1699219-0.0898438c0.0595703-0.0302734,0.1191406-0.050293,0.1894531-0.0600586    c0.3300781-0.0600586,0.6699219,0.0400391,0.9003906,0.2700195c0.0898438,0.0996094,0.1601563,0.2099609,0.2099609,0.3300781    c0.0498047,0.1196289,0.0800781,0.25,0.0800781,0.3798828s-0.0302734,0.2597656-0.0800781,0.3798828    c-0.0498047,0.1298828-0.1201172,0.2402344-0.2099609,0.3300781    C18.3793945,18.3037109,18.1293945,18.4038086,17.8598633,18.4038086z"/></g><g><g><path d="M55.6577148,60H14.3422852c-2.3945313,0-4.3417969-1.9477539-4.3417969-4.3422852V23.159668c0-0.5522461,0.4472656-1,1-1     h48c0.5527344,0,1,0.4477539,1,1v32.4980469C60.0004883,58.0522461,58.0522461,60,55.6577148,60z M12.0004883,24.159668     v31.4980469C12.0004883,56.9492188,13.0512695,58,14.3422852,58h41.3154297c1.2919922,0,2.3427734-1.0507813,2.3427734-2.3422852     V24.159668H12.0004883z"/></g><g><path d="M58.9995117,24.159668h-48c-0.5527344,0-1-0.4477539-1-1v-8.9628906C9.9995117,11.8828125,11.8823242,10,14.1967773,10     h41.6054688c2.3144531,0,4.1972656,1.8828125,4.1972656,4.1967773v8.9628906     C59.9995117,23.7119141,59.5522461,24.159668,58.9995117,24.159668z M11.9995117,22.159668h46v-7.9628906     C57.9995117,12.9853516,57.0141602,12,55.8022461,12H14.1967773c-1.2119141,0-2.1972656,0.9853516-2.1972656,2.1967773V22.159668     z"/></g><g><g><path d="M26.347168,52.8007813H18.027832c-0.5527344,0-1-0.4477539-1-1v-8.3193359c0-0.5522461,0.4472656-1,1-1h8.3193359      c0.5527344,0,1,0.4477539,1,1v8.3193359C27.347168,52.3530273,26.8999023,52.8007813,26.347168,52.8007813z       M19.027832,50.8007813h6.3193359v-6.3193359H19.027832V50.8007813z"/></g><g><g><g><path d="M51.972168,46.2973633h-19c-0.5527344,0-1-0.4477539-1-1s0.4472656-1,1-1h19c0.5527344,0,1,0.4477539,1,1        S52.5249023,46.2973633,51.972168,46.2973633z"/></g><g><path d="M51.972168,50.9848633h-19c-0.5527344,0-1-0.4477539-1-1s0.4472656-1,1-1h19c0.5527344,0,1,0.4477539,1,1        S52.5249023,50.9848633,51.972168,50.9848633z"/></g></g><g><g><path d="M51.972168,33.7036133h-19c-0.5527344,0-1-0.4477539-1-1s0.4472656-1,1-1h19c0.5527344,0,1,0.4477539,1,1        S52.5249023,33.7036133,51.972168,33.7036133z"/></g><g><path d="M51.972168,38.3911133h-19c-0.5527344,0-1-0.4477539-1-1s0.4472656-1,1-1h19c0.5527344,0,1,0.4477539,1,1        S52.5249023,38.3911133,51.972168,38.3911133z"/></g></g></g><g><path d="M21.7084961,38.4741211c-0.2558594,0-0.5117188-0.0976563-0.7070313-0.2929688l-3.6806641-3.6796875      c-0.390625-0.3901367-0.390625-1.0234375,0-1.4140625s1.0234375-0.390625,1.4140625,0l2.9736328,2.9726563l6.4082031-6.4086914      c0.390625-0.390625,1.0234375-0.390625,1.4140625,0s0.390625,1.0234375,0,1.4140625l-7.1152344,7.1157227      C22.2202148,38.3764648,21.9643555,38.4741211,21.7084961,38.4741211z"/></g></g></g></g></svg>