<svg xmlns:dc="http://purl.org/dc/elements/1.1/" xmlns:cc="http://creativecommons.org/ns#" xmlns:rdf="http://www.w3.org/1999/02/22-rdf-syntax-ns#" xmlns:svg="http://www.w3.org/2000/svg" xmlns="http://www.w3.org/2000/svg" xmlns:sodipodi="http://sodipodi.sourceforge.net/DTD/sodipodi-0.dtd" xmlns:inkscape="http://www.inkscape.org/namespaces/inkscape" version="1.1" x="0px" y="0px" viewBox="0 0 100 125"><g transform="translate(0,-952.36218)"><path style="text-indent:0;text-transform:none;direction:ltr;block-progression:tb;baseline-shift:baseline;color:#000000;enable-background:accumulate;" d="m 13.5625,959.15196 c -2.58998,0 -4.75,2.11576 -4.75,4.71875 l 0,72.96879 c 0,2.603 2.16002,4.7187 4.75,4.7187 l 2.40625,0 0,3 a 1.0001,1.0001 0 1 0 2,0 l 0,-3 64.0625,0 0,3 a 1.0001,1.0001 0 1 0 2,0 l 0,-3 2.40625,0 c 2.58998,0 4.75,-2.1157 4.75,-4.7187 l 0,-72.96879 c 0,-2.60301 -2.16002,-4.71875 -4.75,-4.71875 l -72.875,0 z m 0,2 35.4375,0 0,56.09374 -38.1875,0 0,-53.37499 c 0,-1.50062 1.23715,-2.71875 2.75,-2.71875 z m 37.4375,0 35.4375,0 c 1.51285,0 2.75,1.21814 2.75,2.71875 l 0,12.59375 -38.1875,0 0,-15.3125 z m 0,17.3125 38.1875,0 0,58.37504 c 0,1.5006 -1.23715,2.7187 -2.75,2.7187 l -35.4375,0 0,-61.09374 z m -40.1875,40.78124 38.1875,0 0,20.3125 -35.4375,0 c -1.51285,0 -2.75,-1.2181 -2.75,-2.7187 l 0,-17.5938 z" fill="#000000" fill-opacity="1" fill-rule="evenodd" stroke="none" marker="none" visibility="visible" display="inline" overflow="visible"/><path style="text-indent:0;text-transform:none;direction:ltr;block-progression:tb;baseline-shift:baseline;color:#000000;enable-background:accumulate;" d="m 41.818743,980.57876 a 1.0001,1.0001 0 0 0 -0.985464,1.01427 l 0,14.08686 a 1.0001,1.0001 0 1 0 1.999736,0 l 0,-14.08686 a 1.0001,1.0001 0 0 0 -1.014272,-1.01427 z" fill="#000000" fill-opacity="1" fill-rule="evenodd" stroke="none" marker="none" visibility="visible" display="inline" overflow="visible"/><path style="text-indent:0;text-transform:none;direction:ltr;block-progression:tb;baseline-shift:baseline;color:#000000;enable-background:accumulate;" d="m 58.505523,999.12355 a 1.0001,1.0001 0 0 0 -0.984402,1.01435 l 0,14.0868 a 1.0001,1.0001 0 1 0 1.999772,0 l 0,-14.0868 a 1.0001,1.0001 0 0 0 -1.01537,-1.01435 z" fill="#000000" fill-opacity="1" fill-rule="evenodd" stroke="none" marker="none" visibility="visible" display="inline" overflow="visible"/><path style="text-indent:0;text-transform:none;direction:ltr;block-progression:tb;baseline-shift:baseline;color:#000000;enable-background:accumulate;" d="m 24.869547,1028.337 a 1.0001,1.0001 0 1 0 0,1.9998 l 10.020933,0 a 1.0001,1.0001 0 1 0 0,-1.9998 l -10.020933,0 z" fill="#000000" fill-opacity="1" fill-rule="evenodd" stroke="none" marker="none" visibility="visible" display="inline" overflow="visible"/><path style="text-indent:0;text-transform:none;direction:ltr;block-progression:tb;baseline-shift:baseline;color:#000000;enable-background:accumulate;" d="m 64.990873,967.68998 a 1.0004315,1.0004315 0 1 0 0,2.00086 l 10.020933,0 a 1.0004315,1.0004315 0 0 0 0,-2.00086 l -10.020933,0 z" fill="#000000" fill-opacity="1" fill-rule="evenodd" stroke="none" marker="none" visibility="visible" display="inline" overflow="visible"/></g></svg>