<svg xmlns="http://www.w3.org/2000/svg" xmlns:xlink="http://www.w3.org/1999/xlink" version="1.1" x="0px" y="0px" viewBox="0 0 550 687.5" style="enable-background:new 0 0 550 550;" xml:space="preserve"><g><g><g><path d="M83,371c-4.418,0-8-3.582-8-8V155c0-4.418,3.582-8,8-8s8,3.582,8,8v208C91,367.418,87.418,371,83,371z"/></g><g><path d="M499,499H83c-4.418,0-8-3.582-8-8v-48c0-4.418,3.582-8,8-8s8,3.582,8,8v40h400V35H91v40c0,4.418-3.582,8-8,8     s-8-3.582-8-8V27c0-4.418,3.582-8,8-8h416c4.418,0,8,3.582,8,8v464C507,495.418,503.418,499,499,499z"/></g><g><path d="M467,531h-48c-4.418,0-8-3.582-8-8v-32c0-4.418,3.582-8,8-8h48c4.418,0,8,3.582,8,8v32C475,527.418,471.418,531,467,531z      M427,515h32v-16h-32V515z"/></g><g><path d="M163,531h-48c-4.418,0-8-3.582-8-8v-32c0-4.418,3.582-8,8-8h48c4.418,0,8,3.582,8,8v32C171,527.418,167.418,531,163,531z      M123,515h32v-16h-32V515z"/></g><g><path d="M115,163H51c-4.418,0-8-3.582-8-8V75c0-4.418,3.582-8,8-8h64c4.418,0,8,3.582,8,8v80C123,159.418,119.418,163,115,163z      M59,147h48V83H59V147z"/></g><g><path d="M115,451H51c-4.418,0-8-3.582-8-8v-80c0-4.418,3.582-8,8-8h64c4.418,0,8,3.582,8,8v80C123,447.418,119.418,451,115,451z      M59,435h48v-64H59V435z"/></g><g><path d="M299,411c-74.991,0-136-61.01-136-136c0-74.991,61.009-136,136-136c74.99,0,136,61.009,136,136     C435,349.99,373.99,411,299,411z M299,155c-66.168,0-120,53.832-120,120s53.832,120,120,120s120-53.832,120-120     S365.168,155,299,155z"/></g><g><path d="M299,339c-35.29,0-64-28.71-64-64c0-35.29,28.71-64,64-64c35.29,0,64,28.71,64,64C363,310.29,334.29,339,299,339z      M299,227c-26.467,0-48,21.533-48,48c0,26.468,21.533,48,48,48c26.468,0,48-21.532,48-48C347,248.533,325.468,227,299,227z"/></g><g><path d="M299,195c-4.418,0-8-3.582-8-8v-40c0-4.418,3.582-8,8-8s8,3.582,8,8v40C307,191.418,303.418,195,299,195z"/></g><g><path d="M255.007,206.791c-2.765,0-5.454-1.435-6.936-4.001l-20-34.641c-2.209-3.826-0.898-8.719,2.928-10.928     c3.826-2.207,8.719-0.897,10.928,2.928l20,34.641c2.209,3.826,0.898,8.719-2.928,10.928     C257.74,206.445,256.365,206.791,255.007,206.791z"/></g><g><path d="M222.782,239.001c-1.357,0-2.733-0.346-3.993-1.073l-34.641-20c-3.826-2.209-5.137-7.102-2.928-10.928     s7.102-5.139,10.928-2.928l34.641,20c3.826,2.209,5.137,7.102,2.928,10.928C228.236,237.566,225.547,239.001,222.782,239.001z"/></g><g><path d="M211,283h-40c-4.418,0-8-3.582-8-8c0-4.418,3.582-8,8-8h40c4.418,0,8,3.582,8,8C219,279.418,215.418,283,211,283z"/></g><g><path d="M188.156,347.001c-2.765,0-5.454-1.435-6.936-4.001c-2.209-3.826-0.898-8.719,2.928-10.928l34.641-20     c3.826-2.208,8.719-0.898,10.928,2.928c2.209,3.826,0.898,8.719-2.928,10.928l-34.641,20     C190.889,346.655,189.514,347.001,188.156,347.001z"/></g><g><path d="M234.993,393.853c-1.357,0-2.733-0.346-3.993-1.072c-3.826-2.21-5.137-7.103-2.928-10.929l20-34.642     c2.208-3.827,7.102-5.136,10.928-2.929c3.826,2.21,5.137,7.103,2.928,10.929l-20,34.642     C240.447,392.418,237.757,393.853,234.993,393.853z"/></g><g><path d="M299,411c-4.418,0-8-3.582-8-8v-40c0-4.418,3.582-8,8-8s8,3.582,8,8v40C307,407.418,303.418,411,299,411z"/></g><g><path d="M363.008,393.853c-2.766,0-5.454-1.435-6.937-4.001l-20-34.642c-2.209-3.826-0.897-8.719,2.929-10.929     c3.828-2.208,8.719-0.896,10.929,2.929l20,34.642c2.209,3.826,0.897,8.719-2.929,10.929     C365.74,393.507,364.364,393.853,363.008,393.853z"/></g><g><path d="M409.844,347.001c-1.357,0-2.732-0.346-3.992-1.072l-34.642-20c-3.826-2.21-5.138-7.103-2.929-10.929     c2.21-3.827,7.103-5.136,10.929-2.929l34.642,20c3.826,2.21,5.138,7.103,2.929,10.929     C415.298,345.566,412.608,347.001,409.844,347.001z"/></g><g><path d="M427,283h-40c-4.418,0-8-3.582-8-8c0-4.418,3.582-8,8-8h40c4.418,0,8,3.582,8,8C435,279.418,431.418,283,427,283z"/></g><g><path d="M375.218,239.001c-2.766,0-5.454-1.435-6.937-4.001c-2.209-3.826-0.897-8.719,2.929-10.928l34.642-20     c3.828-2.211,8.719-0.897,10.929,2.928c2.209,3.826,0.897,8.719-2.929,10.928l-34.642,20     C377.95,238.656,376.574,239.001,375.218,239.001z"/></g><g><path d="M342.992,206.791c-1.357,0-2.732-0.346-3.992-1.073c-3.826-2.209-5.138-7.102-2.928-10.928l20-34.641     c2.208-3.827,7.102-5.138,10.928-2.928c3.826,2.209,5.138,7.102,2.928,10.928l-20,34.641     C348.446,205.356,345.757,206.791,342.992,206.791z"/></g></g></g></svg>