<svg xmlns="http://www.w3.org/2000/svg" data-name="Layer 1" viewBox="0 0 512 640" x="0px" y="0px"><path d="M172.213,75H177V413.138a79,79,0,1,0,158,0V75h4.787A7.592,7.592,0,0,0,347,67.539V26.82A7.034,7.034,0,0,0,339.787,20H172.213A7.034,7.034,0,0,0,165,26.82V67.539A7.592,7.592,0,0,0,172.213,75ZM256,478.18a65.079,65.079,0,0,1-65-65.042V382h29a7,7,0,0,0,0-14H191V319h29a7,7,0,0,0,0-14H191V281.018a42.651,42.651,0,0,1,6.349,3.631c4.859,3.257,10.849,7.311,22.115,7.311s17.306-4.054,22.164-7.312c4.277-2.867,7.364-4.939,14.37-4.939s10.1,2.072,14.374,4.94c4.859,3.257,10.906,7.311,22.172,7.311s17.246-4.054,22.105-7.311A42.715,42.715,0,0,1,321,281.018v132.12A65.079,65.079,0,0,1,256,478.18Zm65-211.667a41.185,41.185,0,0,0-14.147,6.508c-4.277,2.867-7.312,4.939-14.319,4.939s-10.091-2.072-14.369-4.939c-4.859-3.258-10.9-7.312-22.166-7.312s-17.305,4.054-22.163,7.312c-4.277,2.868-7.355,4.939-14.361,4.939s-10.052-2.072-14.329-4.939A41.179,41.179,0,0,0,191,266.513V257h29a7,7,0,0,0,0-14H191V194h29a7,7,0,0,0,0-14H191V131h29a7,7,0,0,0,0-14H191V75H321ZM179,34H333V61H179Z"/></svg>